<svg xmlns = "http://www.w3.org/2000/svg" width = "1000" height = "1000">
<g>
<polygon points = "46.854, 453.107 68.496, 466.598 133.237, 454.906 173.739, 303.152 58.599, 426.439 "
fill = "none" stroke = "black"/>
</g>
<g>
<polygon points = "639.567, 598.879 639.738, 598.696 611.895, 377.283 554.353, 305.732 384.591, 311.950 329.915, 354.112 312.531, 381.100 304.833, 462.854 "
fill = "none" stroke = "black"/>
</g>
<g>
<polygon points = "881.122, 827.156 826.745, 759.411 819.724, 757.183 704.103, 818.532 730.934, 860.833 "
fill = "none" stroke = "black"/>
</g>
<g>
<polygon points = "693.354, 111.761 655.722, 85.764 651.047, 88.065 590.288, 248.786 604.687, 252.363 715.368, 166.407 711.291, 139.108 "
fill = "none" stroke = "black"/>
</g>
<g>
<polygon points = "374.260, 716.785 365.299, 744.276 362.492, 757.571 457.720, 802.642 462.300, 803.832 546.704, 705.244 "
fill = "none" stroke = "black"/>
</g>
<g>
<polygon points = "711.291, 139.108 715.368, 166.407 779.007, 266.540 800.792, 261.980 809.203, 255.757 827.053, 118.541 "
fill = "none" stroke = "black"/>
</g>
<g>
<polygon points = "582.674, 248.055 545.549, 207.915 437.397, 213.453 464.599, 257.444 551.738, 278.375 "
fill = "none" stroke = "black"/>
</g>
<g>
<polygon points = "349.321, 1000.000 533.623, 1000.000 478.391, 850.259 "
fill = "none" stroke = "black"/>
</g>
<g>
<polygon points = "289.128, 908.375 237.773, 853.210 212.825, 851.241 173.628, 971.189 174.962, 1000.000 340.036, 1000.000 "
fill = "none" stroke = "black"/>
</g>
<g>
<polygon points = "60.500, 308.315 58.942, 309.522 58.599, 426.439 173.739, 303.152 181.896, 287.300 "
fill = "none" stroke = "black"/>
</g>
<g>
<polygon points = "895.686, 671.206 939.459, 626.041 934.652, 545.134 831.024, 571.798 856.335, 636.412 "
fill = "none" stroke = "black"/>
</g>
<g>
<polygon points = "745.199, 878.871 714.153, 973.412 725.933, 1000.000 874.419, 1000.000 "
fill = "none" stroke = "black"/>
</g>
<g>
<polygon points = "555.296, 129.668 553.309, 129.029 414.727, 186.141 411.364, 204.068 437.397, 213.453 545.549, 207.915 "
fill = "none" stroke = "black"/>
</g>
<g>
<polygon points = "551.738, 278.375 464.599, 257.444 391.275, 297.868 384.591, 311.950 554.353, 305.732 "
fill = "none" stroke = "black"/>
</g>
<g>
<polygon points = "211.994, 251.977 222.270, 234.367 154.815, 166.631 75.964, 239.836 "
fill = "none" stroke = "black"/>
</g>
<g>
<polygon points = "174.962, 1000.000 173.628, 971.189 71.238, 931.567 0.000, 922.378 0.000, 1000.000 "
fill = "none" stroke = "black"/>
</g>
<g>
<polygon points = "621.266, 773.499 547.367, 829.659 587.723, 865.541 732.035, 863.219 730.934, 860.833 704.103, 818.532 659.082, 784.821 628.601, 773.874 "
fill = "none" stroke = "black"/>
</g>
<g>
<polygon points = "199.278, 123.536 130.941, 20.279 115.969, 80.243 140.507, 147.830 142.508, 149.081 143.797, 149.480 "
fill = "none" stroke = "black"/>
</g>
<g>
<polygon points = "954.339, 510.986 934.652, 545.134 939.459, 626.041 1000.000, 656.950 1000.000, 485.875 "
fill = "none" stroke = "black"/>
</g>
<g>
<polygon points = "474.000, 58.549 572.589, 37.978 583.949, 0.000 433.777, 0.000 "
fill = "none" stroke = "black"/>
</g>
<g>
<polygon points = "953.897, 262.301 899.697, 381.615 905.972, 404.395 1000.000, 442.616 1000.000, 266.150 "
fill = "none" stroke = "black"/>
</g>
<g>
<polygon points = "49.484, 86.473 115.969, 80.243 130.941, 20.279 128.457, 0.000 89.739, 0.000 "
fill = "none" stroke = "black"/>
</g>
<g>
<polygon points = "373.403, 252.529 284.518, 307.361 283.197, 331.747 329.915, 354.112 384.591, 311.950 391.275, 297.868 "
fill = "none" stroke = "black"/>
</g>
<g>
<polygon points = "241.715, 89.616 270.118, 0.000 139.530, 0.000 "
fill = "none" stroke = "black"/>
</g>
<g>
<polygon points = "657.125, 371.833 691.833, 389.689 748.056, 280.495 618.337, 259.817 "
fill = "none" stroke = "black"/>
</g>
<g>
<polygon points = "918.036, 919.358 740.082, 871.644 745.199, 878.871 874.419, 1000.000 917.583, 1000.000 "
fill = "none" stroke = "black"/>
</g>
<g>
<polygon points = "907.190, 36.813 902.386, 62.174 910.715, 120.640 1000.000, 151.555 1000.000, 0.000 921.705, 0.000 "
fill = "none" stroke = "black"/>
</g>
<g>
<polygon points = "101.988, 826.872 89.746, 731.366 0.000, 693.592 0.000, 835.709 "
fill = "none" stroke = "black"/>
</g>
<g>
<polygon points = "215.688, 587.790 269.302, 748.445 312.835, 776.097 362.492, 757.571 365.299, 744.276 "
fill = "none" stroke = "black"/>
</g>
<g>
<polygon points = "414.195, 116.251 384.410, 87.546 342.056, 73.552 363.470, 211.915 363.716, 211.959 411.364, 204.068 414.727, 186.141 "
fill = "none" stroke = "black"/>
</g>
<g>
<polygon points = "856.335, 636.412 831.024, 571.798 770.711, 538.553 751.851, 543.304 725.636, 565.911 806.582, 667.700 "
fill = "none" stroke = "black"/>
</g>
<g>
<polygon points = "733.778, 702.912 696.776, 585.127 688.356, 587.960 628.601, 773.874 659.082, 784.821 "
fill = "none" stroke = "black"/>
</g>
<g>
<polygon points = "905.972, 404.395 854.288, 438.709 841.170, 480.124 954.339, 510.986 1000.000, 485.875 1000.000, 442.616 "
fill = "none" stroke = "black"/>
</g>
<g>
<polygon points = "46.854, 453.107 58.599, 426.439 58.942, 309.522 0.000, 319.484 0.000, 441.657 "
fill = "none" stroke = "black"/>
</g>
<g>
<polygon points = "794.453, 724.545 806.582, 667.700 725.636, 565.911 696.776, 585.127 733.778, 702.912 "
fill = "none" stroke = "black"/>
</g>
<g>
<polygon points = "658.596, 591.102 704.556, 419.731 691.833, 389.689 657.125, 371.833 611.895, 377.283 639.738, 598.696 "
fill = "none" stroke = "black"/>
</g>
<g>
<polygon points = "214.990, 586.781 175.637, 588.112 152.598, 681.645 157.666, 689.449 269.302, 748.445 215.688, 587.790 "
fill = "none" stroke = "black"/>
</g>
<g>
<polygon points = "71.238, 931.567 145.051, 836.137 101.988, 826.872 0.000, 835.709 0.000, 922.378 "
fill = "none" stroke = "black"/>
</g>
<g>
<polygon points = "7.200, 125.114 20.379, 120.617 49.484, 86.473 89.739, 0.000 50.020, 0.000 "
fill = "none" stroke = "black"/>
</g>
<g>
<polygon points = "593.311, 893.577 587.723, 865.541 547.367, 829.659 484.206, 836.617 478.391, 850.259 533.623, 1000.000 550.064, 1000.000 "
fill = "none" stroke = "black"/>
</g>
<g>
<polygon points = "714.153, 973.412 745.199, 878.871 740.082, 871.644 732.035, 863.219 587.723, 865.541 593.311, 893.577 "
fill = "none" stroke = "black"/>
</g>
<g>
<polygon points = "183.599, 462.490 212.890, 275.715 208.185, 261.653 181.896, 287.300 173.739, 303.152 133.237, 454.906 "
fill = "none" stroke = "black"/>
</g>
<g>
<polygon points = "193.774, 465.819 174.670, 584.655 175.637, 588.112 214.990, 586.781 271.644, 554.583 263.314, 519.327 224.230, 459.550 "
fill = "none" stroke = "black"/>
</g>
<g>
<polygon points = "89.746, 731.366 148.716, 680.084 61.222, 609.660 0.000, 623.063 0.000, 693.592 "
fill = "none" stroke = "black"/>
</g>
<g>
<polygon points = "58.942, 309.522 60.500, 308.315 71.667, 240.718 3.650, 192.813 0.000, 192.127 0.000, 319.484 "
fill = "none" stroke = "black"/>
</g>
<g>
<polygon points = "202.817, 843.595 145.051, 836.137 71.238, 931.567 173.628, 971.189 212.825, 851.241 "
fill = "none" stroke = "black"/>
</g>
<g>
<polygon points = "931.776, 867.382 962.027, 837.951 913.124, 749.690 895.942, 726.573 826.745, 759.411 881.122, 827.156 "
fill = "none" stroke = "black"/>
</g>
<g>
<polygon points = "229.807, 450.701 224.230, 459.550 263.314, 519.327 304.833, 462.854 312.531, 381.100 "
fill = "none" stroke = "black"/>
</g>
<g>
<polygon points = "578.591, 107.965 555.296, 129.668 545.549, 207.915 582.674, 248.055 590.288, 248.786 651.047, 88.065 "
fill = "none" stroke = "black"/>
</g>
<g>
<polygon points = "794.453, 724.545 733.778, 702.912 659.082, 784.821 704.103, 818.532 819.724, 757.183 "
fill = "none" stroke = "black"/>
</g>
<g>
<polygon points = "3.650, 192.813 142.508, 149.081 140.507, 147.830 20.379, 120.617 7.200, 125.114 0.000, 128.208 0.000, 192.127 "
fill = "none" stroke = "black"/>
</g>
<g>
<polygon points = "618.337, 259.817 748.056, 280.495 774.506, 270.740 779.007, 266.540 715.368, 166.407 604.687, 252.363 "
fill = "none" stroke = "black"/>
</g>
<g>
<polygon points = "578.591, 107.965 572.589, 37.978 474.000, 58.549 479.165, 91.633 553.309, 129.029 555.296, 129.668 "
fill = "none" stroke = "black"/>
</g>
<g>
<polygon points = "729.551, 442.836 798.446, 398.444 774.506, 270.740 748.056, 280.495 691.833, 389.689 704.556, 419.731 "
fill = "none" stroke = "black"/>
</g>
<g>
<polygon points = "328.791, 65.352 278.529, 105.692 323.339, 209.795 363.470, 211.915 342.056, 73.552 "
fill = "none" stroke = "black"/>
</g>
<g>
<polygon points = "3.650, 192.813 71.667, 240.718 75.964, 239.836 154.815, 166.631 143.797, 149.480 142.508, 149.081 "
fill = "none" stroke = "black"/>
</g>
<g>
<polygon points = "76.436, 509.087 61.222, 609.660 148.716, 680.084 152.598, 681.645 175.637, 588.112 174.670, 584.655 "
fill = "none" stroke = "black"/>
</g>
<g>
<polygon points = "61.222, 609.660 76.436, 509.087 68.496, 466.598 46.854, 453.107 0.000, 441.657 0.000, 623.063 "
fill = "none" stroke = "black"/>
</g>
<g>
<polygon points = "140.507, 147.830 115.969, 80.243 49.484, 86.473 20.379, 120.617 "
fill = "none" stroke = "black"/>
</g>
<g>
<polygon points = "569.488, 692.979 546.704, 705.244 462.300, 803.832 484.206, 836.617 547.367, 829.659 621.266, 773.499 "
fill = "none" stroke = "black"/>
</g>
<g>
<polygon points = "841.170, 480.124 854.288, 438.709 798.446, 398.444 729.551, 442.836 751.851, 543.304 770.711, 538.553 "
fill = "none" stroke = "black"/>
</g>
<g>
<polygon points = "76.436, 509.087 174.670, 584.655 193.774, 465.819 183.599, 462.490 133.237, 454.906 68.496, 466.598 "
fill = "none" stroke = "black"/>
</g>
<g>
<polygon points = "241.715, 89.616 243.244, 107.569 278.529, 105.692 328.791, 65.352 325.450, 0.000 270.118, 0.000 "
fill = "none" stroke = "black"/>
</g>
<g>
<polygon points = "7.200, 125.114 50.020, 0.000 0.000, 0.000 0.000, 128.208 "
fill = "none" stroke = "black"/>
</g>
<g>
<polygon points = "239.540, 221.936 235.110, 119.869 199.278, 123.536 143.797, 149.480 154.815, 166.631 222.270, 234.367 "
fill = "none" stroke = "black"/>
</g>
<g>
<polygon points = "657.125, 371.833 618.337, 259.817 604.687, 252.363 590.288, 248.786 582.674, 248.055 551.738, 278.375 554.353, 305.732 611.895, 377.283 "
fill = "none" stroke = "black"/>
</g>
<g>
<polygon points = "827.053, 118.541 809.203, 255.757 880.883, 218.747 910.715, 120.640 902.386, 62.174 "
fill = "none" stroke = "black"/>
</g>
<g>
<polygon points = "157.666, 689.449 152.598, 681.645 148.716, 680.084 89.746, 731.366 101.988, 826.872 145.051, 836.137 202.817, 843.595 "
fill = "none" stroke = "black"/>
</g>
<g>
<polygon points = "130.941, 20.279 199.278, 123.536 235.110, 119.869 243.244, 107.569 241.715, 89.616 139.530, 0.000 128.457, 0.000 "
fill = "none" stroke = "black"/>
</g>
<g>
<polygon points = "939.459, 626.041 895.686, 671.206 895.942, 726.573 913.124, 749.690 1000.000, 687.635 1000.000, 656.950 "
fill = "none" stroke = "black"/>
</g>
<g>
<polygon points = "328.791, 65.352 342.056, 73.552 384.410, 87.546 427.931, 0.000 325.450, 0.000 "
fill = "none" stroke = "black"/>
</g>
<g>
<polygon points = "229.807, 450.701 253.551, 348.131 212.890, 275.715 183.599, 462.490 193.774, 465.819 224.230, 459.550 "
fill = "none" stroke = "black"/>
</g>
<g>
<polygon points = "479.165, 91.633 414.195, 116.251 414.727, 186.141 553.309, 129.029 "
fill = "none" stroke = "black"/>
</g>
<g>
<polygon points = "880.883, 218.747 809.203, 255.757 800.792, 261.980 899.697, 381.615 953.897, 262.301 "
fill = "none" stroke = "black"/>
</g>
<g>
<polygon points = "275.560, 222.675 323.339, 209.795 278.529, 105.692 243.244, 107.569 235.110, 119.869 239.540, 221.936 "
fill = "none" stroke = "black"/>
</g>
<g>
<polygon points = "895.942, 726.573 895.686, 671.206 856.335, 636.412 806.582, 667.700 794.453, 724.545 819.724, 757.183 826.745, 759.411 "
fill = "none" stroke = "black"/>
</g>
<g>
<polygon points = "271.644, 554.583 214.990, 586.781 215.688, 587.790 365.299, 744.276 374.260, 716.785 "
fill = "none" stroke = "black"/>
</g>
<g>
<polygon points = "913.124, 749.690 962.027, 837.951 1000.000, 831.742 1000.000, 687.635 "
fill = "none" stroke = "black"/>
</g>
<g>
<polygon points = "363.716, 211.959 363.470, 211.915 323.339, 209.795 275.560, 222.675 284.518, 307.361 373.403, 252.529 "
fill = "none" stroke = "black"/>
</g>
<g>
<polygon points = "312.835, 776.097 237.773, 853.210 289.128, 908.375 457.720, 802.642 362.492, 757.571 "
fill = "none" stroke = "black"/>
</g>
<g>
<polygon points = "384.410, 87.546 414.195, 116.251 479.165, 91.633 474.000, 58.549 433.777, 0.000 427.931, 0.000 "
fill = "none" stroke = "black"/>
</g>
<g>
<polygon points = "746.019, 77.816 907.190, 36.813 921.705, 0.000 747.978, 0.000 "
fill = "none" stroke = "black"/>
</g>
<g>
<polygon points = "253.551, 348.131 283.197, 331.747 284.518, 307.361 275.560, 222.675 239.540, 221.936 222.270, 234.367 211.994, 251.977 208.185, 261.653 212.890, 275.715 "
fill = "none" stroke = "black"/>
</g>
<g>
<polygon points = "655.722, 85.764 693.354, 111.761 746.019, 77.816 747.978, 0.000 647.691, 0.000 "
fill = "none" stroke = "black"/>
</g>
<g>
<polygon points = "962.027, 837.951 931.776, 867.382 918.036, 919.358 917.583, 1000.000 1000.000, 1000.000 1000.000, 831.742 "
fill = "none" stroke = "black"/>
</g>
<g>
<polygon points = "841.170, 480.124 770.711, 538.553 831.024, 571.798 934.652, 545.134 954.339, 510.986 "
fill = "none" stroke = "black"/>
</g>
<g>
<polygon points = "798.446, 398.444 854.288, 438.709 905.972, 404.395 899.697, 381.615 800.792, 261.980 779.007, 266.540 774.506, 270.740 "
fill = "none" stroke = "black"/>
</g>
<g>
<polygon points = "283.197, 331.747 253.551, 348.131 229.807, 450.701 312.531, 381.100 329.915, 354.112 "
fill = "none" stroke = "black"/>
</g>
<g>
<polygon points = "931.776, 867.382 881.122, 827.156 730.934, 860.833 732.035, 863.219 740.082, 871.644 918.036, 919.358 "
fill = "none" stroke = "black"/>
</g>
<g>
<polygon points = "593.311, 893.577 550.064, 1000.000 725.933, 1000.000 714.153, 973.412 "
fill = "none" stroke = "black"/>
</g>
<g>
<polygon points = "572.589, 37.978 578.591, 107.965 651.047, 88.065 655.722, 85.764 647.691, 0.000 583.949, 0.000 "
fill = "none" stroke = "black"/>
</g>
<g>
<polygon points = "263.314, 519.327 271.644, 554.583 374.260, 716.785 546.704, 705.244 569.488, 692.979 639.567, 598.879 304.833, 462.854 "
fill = "none" stroke = "black"/>
</g>
<g>
<polygon points = "411.364, 204.068 363.716, 211.959 373.403, 252.529 391.275, 297.868 464.599, 257.444 437.397, 213.453 "
fill = "none" stroke = "black"/>
</g>
<g>
<polygon points = "289.128, 908.375 340.036, 1000.000 349.321, 1000.000 478.391, 850.259 484.206, 836.617 462.300, 803.832 457.720, 802.642 "
fill = "none" stroke = "black"/>
</g>
<g>
<polygon points = "688.356, 587.960 658.596, 591.102 639.738, 598.696 639.567, 598.879 569.488, 692.979 621.266, 773.499 628.601, 773.874 "
fill = "none" stroke = "black"/>
</g>
<g>
<polygon points = "729.551, 442.836 704.556, 419.731 658.596, 591.102 688.356, 587.960 696.776, 585.127 725.636, 565.911 751.851, 543.304 "
fill = "none" stroke = "black"/>
</g>
<g>
<polygon points = "312.835, 776.097 269.302, 748.445 157.666, 689.449 202.817, 843.595 212.825, 851.241 237.773, 853.210 "
fill = "none" stroke = "black"/>
</g>
<g>
<polygon points = "71.667, 240.718 60.500, 308.315 181.896, 287.300 208.185, 261.653 211.994, 251.977 75.964, 239.836 "
fill = "none" stroke = "black"/>
</g>
<g>
<polygon points = "910.715, 120.640 880.883, 218.747 953.897, 262.301 1000.000, 266.150 1000.000, 151.555 "
fill = "none" stroke = "black"/>
</g>
<g>
<polygon points = "746.019, 77.816 693.354, 111.761 711.291, 139.108 827.053, 118.541 902.386, 62.174 907.190, 36.813 "
fill = "none" stroke = "black"/>
</g>
</svg>
